<svg id="图层_1" data-name="图层 1" xmlns="http://www.w3.org/2000/svg" xmlns:xlink="http://www.w3.org/1999/xlink" viewBox="0 0 148.5 53.37"><defs><style>.cls-1{fill:url(#未命名的渐变_6);}.cls-2{fill:url(#未命名的渐变_6-2);}.cls-3{fill:url(#未命名的渐变_6-3);}.cls-4{fill:url(#未命名的渐变_6-4);}.cls-5{fill:url(#未命名的渐变_6-5);}.cls-6{fill:url(#未命名的渐变_6-6);}.cls-7{fill:url(#未命名的渐变_6-7);}.cls-8{fill:url(#未命名的渐变_6-8);}.cls-9{fill:url(#未命名的渐变_6-9);}.cls-10{fill:url(#未命名的渐变_6-10);}.cls-11{fill:url(#未命名的渐变_6-11);}.cls-12{fill:url(#未命名的渐变_6-12);}.cls-13{fill:url(#未命名的渐变_6-13);}.cls-14{fill:url(#未命名的渐变_6-14);}.cls-15{fill:url(#未命名的渐变_6-15);}.cls-16{fill:url(#未命名的渐变_6-16);}.cls-17{fill:url(#未命名的渐变_6-17);}.cls-18{fill:url(#未命名的渐变_6-18);}.cls-19{fill:url(#未命名的渐变_6-19);}.cls-20{fill:url(#未命名的渐变_6-20);}.cls-21{fill:url(#未命名的渐变_6-21);}.cls-22{fill:url(#未命名的渐变_6-22);}.cls-23{fill:url(#未命名的渐变_6-23);}.cls-24{fill:url(#未命名的渐变_6-24);}.cls-25{fill:url(#未命名的渐变_6-25);}.cls-26{fill:url(#未命名的渐变_6-26);}</style><linearGradient id="未命名的渐变_6" x1="16.24" y1="99.64" x2="24.91" y2="92.6" gradientUnits="userSpaceOnUse"><stop offset="0" stop-color="#e73122"/><stop offset="1" stop-color="#cf211b"/></linearGradient><linearGradient id="未命名的渐变_6-2" x1="21.33" y1="99.62" x2="29.99" y2="92.58" xlink:href="#未命名的渐变_6"/><linearGradient id="未命名的渐变_6-3" x1="5.82" y1="89.95" x2="41.56" y2="60.93" xlink:href="#未命名的渐变_6"/><linearGradient id="未命名的渐变_6-4" x1="50.16" y1="94.26" x2="57.9" y2="94.26" xlink:href="#未命名的渐变_6"/><linearGradient id="未命名的渐变_6-5" x1="59.02" y1="95.44" x2="64.11" y2="95.44" xlink:href="#未命名的渐变_6"/><linearGradient id="未命名的渐变_6-6" x1="65.47" y1="95.28" x2="68.9" y2="95.28" xlink:href="#未命名的渐变_6"/><linearGradient id="未命名的渐变_6-7" x1="72.73" y1="94.26" x2="78.77" y2="94.26" xlink:href="#未命名的渐变_6"/><linearGradient id="未命名的渐变_6-8" x1="80.25" y1="95.28" x2="83.68" y2="95.28" xlink:href="#未命名的渐变_6"/><linearGradient id="未命名的渐变_6-9" x1="84.4" y1="95.28" x2="92.86" y2="95.28" xlink:href="#未命名的渐变_6"/><linearGradient id="未命名的渐变_6-10" x1="97.92" y1="94.18" x2="102.97" y2="94.18" xlink:href="#未命名的渐变_6"/><linearGradient id="未命名的渐变_6-11" x1="104.09" y1="95.36" x2="109.32" y2="95.36" xlink:href="#未命名的渐变_6"/><linearGradient id="未命名的渐变_6-12" x1="110.67" y1="96.39" x2="116.23" y2="96.39" xlink:href="#未命名的渐变_6"/><linearGradient id="未命名的渐变_6-13" x1="117.35" y1="96.39" x2="122.92" y2="96.39" xlink:href="#未命名的渐变_6"/><linearGradient id="未命名的渐变_6-14" x1="123.42" y1="96.47" x2="129.1" y2="96.47" xlink:href="#未命名的渐变_6"/><linearGradient id="未命名的渐变_6-15" x1="133.33" y1="94.26" x2="140.62" y2="94.26" xlink:href="#未命名的渐变_6"/><linearGradient id="未命名的渐变_6-16" x1="141.75" y1="94.26" x2="149.5" y2="94.26" xlink:href="#未命名的渐变_6"/><linearGradient id="未命名的渐变_6-17" x1="48.12" y1="17.68" x2="52.7" y2="17.68" xlink:href="#未命名的渐变_6"/><linearGradient id="未命名的渐变_6-18" x1="49.57" y1="75.85" x2="76.48" y2="75.85" xlink:href="#未命名的渐变_6"/><linearGradient id="未命名的渐变_6-19" x1="53.15" y1="15.17" x2="69.64" y2="15.17" xlink:href="#未命名的渐变_6"/><linearGradient id="未命名的渐变_6-20" x1="70.09" y1="17.68" x2="74.69" y2="17.68" xlink:href="#未命名的渐变_6"/><linearGradient id="未命名的渐变_6-21" x1="49.54" y1="61.49" x2="76.48" y2="61.49" xlink:href="#未命名的渐变_6"/><linearGradient id="未命名的渐变_6-22" x1="97.48" y1="28.55" x2="103.66" y2="28.55" xlink:href="#未命名的渐变_6"/><linearGradient id="未命名的渐变_6-23" x1="80.2" y1="70.72" x2="104.82" y2="70.72" xlink:href="#未命名的渐变_6"/><linearGradient id="未命名的渐变_6-24" x1="78.42" y1="28.55" x2="84.6" y2="28.55" xlink:href="#未命名的渐变_6"/><linearGradient id="未命名的渐变_6-25" x1="109.03" y1="70.64" x2="128.15" y2="70.64" xlink:href="#未命名的渐变_6"/><linearGradient id="未命名的渐变_6-26" x1="131" y1="70.64" x2="150.11" y2="70.64" xlink:href="#未命名的渐变_6"/></defs><title>睿乐go</title><path class="cls-1" d="M18.88,89.18l.05,13.2A1.6,1.6,0,0,0,20.54,104a1.59,1.59,0,0,0,1-.36l.13-.12a1.59,1.59,0,0,0,.47-1.15l0-13.19Z" transform="translate(-1.62 -50.62)"/><path class="cls-2" d="M24,89.16l0,13.2a1.58,1.58,0,0,0,.48,1.14,1.61,1.61,0,0,0,1.14.47h0a1.56,1.56,0,0,0,1-.36l.13-.12a1.61,1.61,0,0,0,.47-1.14l-.05-13.2Z" transform="translate(-1.62 -50.62)"/><path class="cls-3" d="M44.41,71.94A21.42,21.42,0,0,0,23,50.62h-.07A21.4,21.4,0,0,0,13.8,91.33l0,7.91a1.58,1.58,0,0,0,.48,1.14,1.61,1.61,0,0,0,1.14.47h0a1.62,1.62,0,0,0,1.62-1.63l-.05-13,12,0,.05,13a1.6,1.6,0,0,0,1.62,1.62h0a1.62,1.62,0,0,0,1.61-1.63l0-7.88A21.47,21.47,0,0,0,44.41,71.94Zm-26.91.57,0-7.47,5.32-3.73L28.18,65l0,6.36-9,0A1.94,1.94,0,0,0,17.5,72.51Zm.6,2.38,10.66,7.47-11.22,0,0-8.25A2.08,2.08,0,0,0,18.1,74.89Zm14.19,4.64L26,75.24h4.13a1.91,1.91,0,0,0,1.37-.57h0a2,2,0,0,0,.56-1.37l0-9.31a1.94,1.94,0,0,0-.84-1.59l-7.33-5a2,2,0,0,0-2.21,0l-7.24,5.08A1.89,1.89,0,0,0,13.61,64l.06,20.31a2,2,0,0,0,1,1.69l-1-2.07v3.69A18.29,18.29,0,0,1,4.85,72.07,18.2,18.2,0,0,1,23,53.85H23A18.2,18.2,0,0,1,41.17,72a18.42,18.42,0,0,1-8.88,15.68V86h0Z" transform="translate(-1.62 -50.62)"/><path class="cls-4" d="M56.9,91.3a4.9,4.9,0,0,1,0,5.93,4.08,4.08,0,0,1-5.75,0,4.91,4.91,0,0,1,0-5.91,4.08,4.08,0,0,1,5.75,0Zm-4.85.75a3.36,3.36,0,0,0-.67,2.22,3.42,3.42,0,0,0,.67,2.22,2.44,2.44,0,0,0,2,.84,2.42,2.42,0,0,0,2-.82,3.37,3.37,0,0,0,.68-2.24A3.43,3.43,0,0,0,56,92a2.72,2.72,0,0,0-3.94,0Z" transform="translate(-1.62 -50.62)"/><path class="cls-5" d="M59,92.47H60.2V96a1.53,1.53,0,0,0,.32,1.08,1.28,1.28,0,0,0,1,.34,1.22,1.22,0,0,0,.86-.38,2,2,0,0,0,.56-1V92.47h1.18v5.78H62.93v-.78a2.25,2.25,0,0,1-1.82.94c-1.39,0-2.09-.78-2.09-2.34Z" transform="translate(-1.62 -50.62)"/><path class="cls-6" d="M68.9,92.46v1.19a3,3,0,0,0-.84-.13,1.31,1.31,0,0,0-1,.44,1.69,1.69,0,0,0-.45,1.23v3.06H65.47V92.47h1.18v.88a1.76,1.76,0,0,1,.56-.71,1.45,1.45,0,0,1,.94-.32A1.82,1.82,0,0,1,68.9,92.46Z" transform="translate(-1.62 -50.62)"/><path class="cls-7" d="M76.83,90.27v1h-1a.56.56,0,0,0-.42.14.65.65,0,0,0-.14.46v.59h3.54v5.78H77.59v-4.8H75.23v4.8H74.06v-4.8H72.73v-1h1.33v-.62a1.55,1.55,0,0,1,.4-1.15,1.52,1.52,0,0,1,1.16-.43Z" transform="translate(-1.62 -50.62)"/><path class="cls-8" d="M83.68,92.46v1.19a3,3,0,0,0-.84-.13,1.31,1.31,0,0,0-1,.44,1.69,1.69,0,0,0-.45,1.23v3.06H80.25V92.47h1.18v.88a1.76,1.76,0,0,1,.56-.71,1.45,1.45,0,0,1,.94-.32A1.82,1.82,0,0,1,83.68,92.46Z" transform="translate(-1.62 -50.62)"/><path class="cls-9" d="M89,93.29a2.41,2.41,0,0,1,.82-.76,2.07,2.07,0,0,1,1-.21,2,2,0,0,1,1.47.59,2.13,2.13,0,0,1,.58,1.55v3.79H91.68V94.66a1.43,1.43,0,0,0-.3-1,1.28,1.28,0,0,0-1-.33,1.07,1.07,0,0,0-.82.37,1.45,1.45,0,0,0-.34,1v3.55H88.05V94.68c0-.91-.4-1.37-1.19-1.37a1.08,1.08,0,0,0-.91.44,1.49,1.49,0,0,0-.36,1v3.47H84.4V92.47h1.19v.64a2,2,0,0,1,1.58-.79A1.92,1.92,0,0,1,89,93.29Z" transform="translate(-1.62 -50.62)"/><path class="cls-10" d="M97.92,90.12h1.19v3.17a2,2,0,0,1,.8-.75,2,2,0,0,1,1-.22,2,2,0,0,1,1.58.61,2.57,2.57,0,0,1,.5,1.73v3.59h-1.18V94.87a2,2,0,0,0-.31-1.17,1.27,1.27,0,0,0-1-.41,1.16,1.16,0,0,0-1,.48A1.89,1.89,0,0,0,99.11,95v3.24H97.92Z" transform="translate(-1.62 -50.62)"/><path class="cls-11" d="M108.79,93a2.28,2.28,0,0,1,.53,1.61v3.69h-1.1v-.81a2.58,2.58,0,0,1-.85.7,3.07,3.07,0,0,1-1.33.27,2.1,2.1,0,0,1-1.41-.46,1.56,1.56,0,0,1-.54-1.24,1.77,1.77,0,0,1,.86-1.62,3.56,3.56,0,0,1,1.9-.45h1.3v-.14c0-.81-.44-1.21-1.31-1.21a1.65,1.65,0,0,0-.94.22,1.05,1.05,0,0,0-.46.76h-1.17a2.06,2.06,0,0,1,.87-1.52,3.19,3.19,0,0,1,1.78-.42A2.47,2.47,0,0,1,108.79,93Zm-.64,2.59h-1.22c-1.08,0-1.62.37-1.62,1.13a.72.72,0,0,0,.25.57,1.2,1.2,0,0,0,.75.22,2,2,0,0,0,1.33-.45,1.51,1.51,0,0,0,.51-1.18Z" transform="translate(-1.62 -50.62)"/><path class="cls-12" d="M115.56,93.22a3.8,3.8,0,0,1,0,4.28,2.34,2.34,0,0,1-2,.91,2.1,2.1,0,0,1-1.77-1v3.06h-1.18v-8h1.11v.7a2,2,0,0,1,1.78-.85A2.44,2.44,0,0,1,115.56,93.22Zm-3.37.67a2.47,2.47,0,0,0-.37,1.43v.1a2.26,2.26,0,0,0,.46,1.5,1.28,1.28,0,0,0,1.07.53,1.5,1.5,0,0,0,1.29-.57,2.61,2.61,0,0,0,.38-1.49,2.83,2.83,0,0,0-.35-1.49,1.45,1.45,0,0,0-1.29-.62A1.35,1.35,0,0,0,112.19,93.89Z" transform="translate(-1.62 -50.62)"/><path class="cls-13" d="M122.25,93.22a3.41,3.41,0,0,1,.67,2.17,3.32,3.32,0,0,1-.66,2.11,2.33,2.33,0,0,1-2,.91,2.07,2.07,0,0,1-1.76-1v3.06h-1.19v-8h1.11v.7a2,2,0,0,1,1.79-.85A2.46,2.46,0,0,1,122.25,93.22Zm-3.38.67a2.55,2.55,0,0,0-.37,1.43v.1a2.26,2.26,0,0,0,.46,1.5,1.29,1.29,0,0,0,1.07.53,1.5,1.5,0,0,0,1.29-.57,2.61,2.61,0,0,0,.38-1.49,2.83,2.83,0,0,0-.35-1.49,1.43,1.43,0,0,0-1.28-.62A1.35,1.35,0,0,0,118.87,93.89Z" transform="translate(-1.62 -50.62)"/><path class="cls-14" d="M123.42,92.47h1.28l1.59,4.22,1.52-4.22h1.29l-3.13,8H124.7l1-2.34Z" transform="translate(-1.62 -50.62)"/><path class="cls-15" d="M139.53,90.81a3,3,0,0,1,1.07,2h-1.23a1.86,1.86,0,0,0-.73-1.21,2.56,2.56,0,0,0-1.52-.41,2.31,2.31,0,0,0-1.85.79,3.41,3.41,0,0,0-.72,2.32,3.35,3.35,0,0,0,.65,2.21,2.73,2.73,0,0,0,2.21.84,4.22,4.22,0,0,0,1.1-.15,3.11,3.11,0,0,0,.9-.39V95.08H137.2V94h3.42v3.35a4.47,4.47,0,0,1-1.44.75,6.44,6.44,0,0,1-1.91.27,3.76,3.76,0,0,1-3-1.21,4.24,4.24,0,0,1-1-2.9,4.39,4.39,0,0,1,1-3,3.47,3.47,0,0,1,2.81-1.23A3.8,3.8,0,0,1,139.53,90.81Z" transform="translate(-1.62 -50.62)"/><path class="cls-16" d="M148.49,91.3a4.86,4.86,0,0,1,0,5.93,4.07,4.07,0,0,1-5.74,0,4.87,4.87,0,0,1,0-5.91,3.59,3.59,0,0,1,2.87-1.19A3.64,3.64,0,0,1,148.49,91.3Zm-4.85.75a3.36,3.36,0,0,0-.67,2.22,3.42,3.42,0,0,0,.67,2.22,2.47,2.47,0,0,0,2,.84,2.4,2.4,0,0,0,2-.82,3.37,3.37,0,0,0,.69-2.24,3.44,3.44,0,0,0-.69-2.25,2.72,2.72,0,0,0-3.94,0Z" transform="translate(-1.62 -50.62)"/><polygon class="cls-17" points="52.7 16.21 48.89 16.21 48.12 19.15 51.91 19.15 52.7 16.21"/><path class="cls-18" d="M69.86,68.35A3.19,3.19,0,0,0,68,67.79H58a3.69,3.69,0,0,0-.86.11,3,3,0,0,0-.8.34l-3.79,2.68h-3v2.63h1.84l1.32,0V83.91H70.92a4.13,4.13,0,0,0,.72-.07,3.29,3.29,0,0,0,.77-.24,1.77,1.77,0,0,0,.62-.45,1,1,0,0,0,.26-.68V73.58l1.32,0h1.87V70.92H73.37ZM59,70.41h8l1.53,1.13H57.43Zm9.9,10.87H57.11v-.76h11.8Zm0-3.16H57.11V77.3h11.8Zm0-3.19H57.11v-.79h11.8Z" transform="translate(-1.62 -50.62)"/><rect class="cls-19" x="53.15" y="13.95" width="16.49" height="2.43"/><polygon class="cls-20" points="73.92 16.21 70.09 16.21 70.86 19.15 74.69 19.15 73.92 16.21"/><path class="cls-21" d="M65,60.14h9.86V57.45H65v-.59H60.59V61H52a3.88,3.88,0,0,0-.79.1,3,3,0,0,0-.79.31,2.16,2.16,0,0,0-.62.54,1.2,1.2,0,0,0-.26.75v3.47h4.38V63.81H72.1v2.31h4.38V61H65Z" transform="translate(-1.62 -50.62)"/><polygon class="cls-22" points="97.48 23.61 99.45 33.49 103.66 33.49 101.68 23.61 97.48 23.61"/><path class="cls-23" d="M104.82,69.28h-9.4V62.17H91.05v7.11H84.58V60.84h19.06v-3.5H82.38a2.78,2.78,0,0,0-.75.11,2.73,2.73,0,0,0-.71.34,1.94,1.94,0,0,0-.52.55,1.45,1.45,0,0,0-.2.75V71a1.4,1.4,0,0,0,.2.75,1.78,1.78,0,0,0,.51.55,2.22,2.22,0,0,0,.69.34,2.59,2.59,0,0,0,.78.12h8.67v7.82H87v3.5h6.17A2.61,2.61,0,0,0,94,84a2,2,0,0,0,.71-.33,2.3,2.3,0,0,0,.53-.55,1.37,1.37,0,0,0,.21-.75V72.79h9.4Z" transform="translate(-1.62 -50.62)"/><polygon class="cls-24" points="78.42 33.49 82.63 33.49 84.6 23.61 80.39 23.61 78.42 33.49"/><path class="cls-25" d="M110.42,58.44a2.28,2.28,0,0,0-.68.34,1.9,1.9,0,0,0-.51.55,1.39,1.39,0,0,0-.2.72V83h17a2.9,2.9,0,0,0,.75-.11,2.33,2.33,0,0,0,.67-.33A1.73,1.73,0,0,0,128,82a1.34,1.34,0,0,0,.2-.72V69H116.71v3.5h6.78v7h-9.8V61.83h14.46v-3.5h-17A2.58,2.58,0,0,0,110.42,58.44Z" transform="translate(-1.62 -50.62)"/><path class="cls-26" d="M133.12,58.33a2.71,2.71,0,0,0-.74.11,2.55,2.55,0,0,0-.68.34,2,2,0,0,0-.5.55,1.31,1.31,0,0,0-.2.72V83h17a2.76,2.76,0,0,0,.74-.11,2.39,2.39,0,0,0,.68-.33,1.85,1.85,0,0,0,.5-.54,1.34,1.34,0,0,0,.19-.72V58.33Zm12.33,21.18h-9.79V61.83h9.79Z" transform="translate(-1.62 -50.62)"/></svg>