<?xml version="1.0" standalone="no"?><!DOCTYPE svg PUBLIC "-//W3C//DTD SVG 1.1//EN" "http://www.w3.org/Graphics/SVG/1.1/DTD/svg11.dtd"><svg t="1553510963699" class="icon" style="" viewBox="0 0 1024 1024" version="1.1" xmlns="http://www.w3.org/2000/svg" p-id="1697" xmlns:xlink="http://www.w3.org/1999/xlink" width="200" height="200"><defs><style type="text/css"></style></defs><path d="M300.5 503.8c-11 0-21.3-4.3-29-12L110 330.4c-7.7-7.7-12-18.1-12-29 0-11 4.3-21.3 12-29L271.4 111c7.7-7.7 18.1-12 29-12 11 0 21.3 4.3 29 12l161.5 161.3c7.7 7.7 12 18.1 12 29 0 11-4.3 21.3-12 29L329.5 491.8c-7.7 7.8-18 12-29 12zM161.8 301.4l138.7 138.7 138.7-138.7-138.7-138.7-138.7 138.7zM300.5 928.5c-11 0-21.3-4.3-29-12L110 755.1c-7.7-7.7-12-18.1-12-29 0-11 4.3-21.3 12-29l161.4-161.4c7.7-7.7 18.1-12 29-12 11 0 21.3 4.3 29 12L490.9 697c7.7 7.7 12 18.1 12 29 0 11-4.3 21.3-12 29L329.5 916.5c-7.7 7.7-18 12-29 12zM161.8 726l138.7 138.7L439.2 726 300.5 587.3 161.8 726zM896.6 271.4H551.8c-16.6 0-30-13.4-30-30s13.4-30 30-30h344.8c16.6 0 30 13.4 30 30s-13.4 30-30 30zM896.6 553.7H551.8c-16.6 0-30-13.4-30-30s13.4-30 30-30h344.8c16.6 0 30 13.4 30 30s-13.4 30-30 30zM896.6 836H551.8c-16.6 0-30-13.4-30-30s13.4-30 30-30h344.8c16.6 0 30 13.4 30 30s-13.4 30-30 30z" fill="#dbdbdb" p-id="1698"></path></svg>