<?xml version="1.0" standalone="no"?><!DOCTYPE svg PUBLIC "-//W3C//DTD SVG 1.1//EN" "http://www.w3.org/Graphics/SVG/1.1/DTD/svg11.dtd"><svg t="1553822002690" class="icon" style="" viewBox="0 0 1024 1024" version="1.1" xmlns="http://www.w3.org/2000/svg" p-id="1999" xmlns:xlink="http://www.w3.org/1999/xlink" width="200" height="200"><defs><style type="text/css"></style></defs><path d="M759.456119 960.71199a189.86403 189.86403 0 1 1 189.864029-189.86403 189.86403 189.86403 0 0 1-189.864029 189.86403z m0-316.440049a126.57602 126.57602 0 1 0 126.576019 126.576019 126.57602 126.57602 0 0 0-126.576019-126.576019z" fill="#54C3F1" p-id="2000"></path><path d="M727.812114 897.42398h63.28801v126.57602h-63.28801zM727.812114 517.695921h63.28801v126.57602h-63.28801zM558.200247 927.264277l89.489246-89.489246 44.744623 44.744623-89.489246 89.52089zM826.541409 659.144623l89.489246-89.489246 44.744623 44.776267-89.489246 89.489246zM506.304079 739.203956h126.57602v63.288009h-126.57602zM886.032138 739.203956h126.57602v63.288009h-126.57602zM558.326823 614.305068l44.744623-44.744623 89.489246 89.489246-44.744623 44.744623zM826.414833 882.64623l44.744623-44.744623 89.52089 89.489246-44.776267 44.744623z" fill="#54C3F1" p-id="2001"></path><path d="M727.812114 517.695921h63.28801v126.57602h-63.28801zM727.812114 897.42398h63.28801v126.57602h-63.28801z" fill="#54C3F1" p-id="2002"></path><path d="M506.304079 1024H0v-31.644005c0-100.944376 109.171817-146.195303 205.369592-185.750309C275.619283 777.493201 348.084054 747.431397 348.084054 707.559951a130.05686 130.05686 0 0 0-28.163164-63.28801 420.232386 420.232386 0 0 1-60.123609-126.57602H253.15204c-49.048208 0-74.996292-65.50309-74.996292-130.3733A113.601978 113.601978 0 0 1 221.508035 284.796044a284.796044 284.796044 0 0 1 569.592089 0 74.679852 74.679852 0 0 1 22.783683 21.834364 194.29419 194.29419 0 0 1 6.012361 158.220025l-58.857849-23.416564c16.454883-40.504326 9.176761-96.830655 0-103.159456H727.812114V301.883807 296.187886A221.508035 221.508035 0 0 0 284.796044 296.187886v5.695921l1.898641 37.972806H253.15204c-1.89864 0-9.176761 10.126082-11.075402 35.757726A135.119901 135.119901 0 0 0 257.26576 454.407911h53.478369l5.06304 25.315204a362.640297 362.640297 0 0 0 57.275649 131.00618A179.421508 179.421508 0 0 1 411.372064 707.559951c0 82.274413-92.400494 120.563659-181.953028 158.220024-65.81953 27.213844-133.537701 55.377009-158.220025 94.932015H506.304079z" fill="#54C3F1" p-id="2003"></path></svg>