<?xml version="1.0" standalone="no"?><!DOCTYPE svg PUBLIC "-//W3C//DTD SVG 1.1//EN" "http://www.w3.org/Graphics/SVG/1.1/DTD/svg11.dtd"><svg t="1553822340507" class="icon" style="" viewBox="0 0 1024 1024" version="1.1" xmlns="http://www.w3.org/2000/svg" p-id="4550" xmlns:xlink="http://www.w3.org/1999/xlink" width="200" height="200"><defs><style type="text/css"></style></defs><path d="M822.606177 216.0885L201.393823 216.0885c-45.025473 0-81.864496 36.839023-81.864496 81.864496l0 428.095032c0 45.025473 36.839023 81.864496 81.864496 81.864496L822.606177 807.912523c45.025473 0 81.864496-36.839023 81.864496-81.864496L904.470673 297.952996C904.470673 252.927523 867.63165 216.0885 822.606177 216.0885zM624.234177 493.911016c-0.705058-0.705058-1.443885-1.354857-2.206248-1.959631l231.244688-195.320501c0.019443 0.438998 0.032746 0.880043 0.032746 1.322112l0 425.03023L624.234177 493.911016zM512 517.910617L215.239156 267.25381 808.760844 267.25381 512 517.910617zM170.694637 711.214181l0-413.262208c0-0.442068 0.013303-0.883113 0.032746-1.322112L395.45975 486.449068 170.694637 711.214181zM197.748806 756.519016l236.936317-236.93734 60.71378 51.281967c0.599657 0.512676 1.220804 0.98749 1.855254 1.436722 0.052189 0.036839 0.103354 0.073678 0.154519 0.110517 0.586354 0.407276 1.184989 0.788969 1.796926 1.143033 0.069585 0.039909 0.13917 0.076748 0.208754 0.116657 0.569982 0.321318 1.14815 0.623193 1.737574 0.898463 0.061398 0.028653 0.121773 0.060375 0.182149 0.089028 0.580215 0.26606 1.169639 0.502443 1.765203 0.722454 0.168846 0.062422 0.337691 0.12382 0.50756 0.183172 0.573051 0.198521 1.150196 0.381693 1.734504 0.538259 0.155543 0.041956 0.311085 0.074701 0.467651 0.113587 0.48914 0.121773 0.980327 0.228197 1.474584 0.320295 0.171915 0.031722 0.341784 0.067538 0.5137 0.096191 0.592494 0.098237 1.189082 0.172939 1.786693 0.230244 0.167822 0.01535 0.334621 0.027629 0.502443 0.039909 0.618077 0.046049 1.237177 0.077771 1.856277 0.078795 0.014326 0 0.028653 0.002047 0.042979 0.002047 0.004093 0 0.00921 0 0.013303 0s0.00921 0 0.013303 0c0.014326 0 0.028653-0.002047 0.042979-0.002047 0.620124-0.002047 1.238201-0.032746 1.856277-0.078795 0.167822-0.01228 0.334621-0.024559 0.502443-0.039909 0.597611-0.056282 1.193175-0.130983 1.785669-0.230244 0.172939-0.028653 0.343831-0.064468 0.515746-0.097214 0.493234-0.092098 0.983397-0.198521 1.470491-0.319272 0.156566-0.038886 0.314155-0.072655 0.470721-0.11461 0.582261-0.156566 1.159406-0.339738 1.731434-0.537236 0.170892-0.059352 0.341784-0.12075 0.511653-0.184195 0.594541-0.220011 1.182942-0.456395 1.76111-0.721431 0.063445-0.029676 0.125867-0.062422 0.189312-0.092098 0.586354-0.274246 1.161453-0.574075 1.728364-0.893346 0.071631-0.040932 0.143263-0.078795 0.214894-0.119727 0.610914-0.353041 1.207501-0.733711 1.791809-1.139963 0.054235-0.037862 0.107447-0.076748 0.160659-0.11461 0.633427-0.447185 1.252527-0.920976 1.850138-1.431605l55.120388-46.556339c1.13894 2.073218 2.579755 4.024663 4.336772 5.780657l226.656183 226.657206L201.393823 756.748237C200.166879 756.74619 198.952214 756.664326 197.748806 756.519016z" fill="#1296db" p-id="4551"></path></svg>